<svg width="25" height="24" viewBox="0 0 25 24" fill="none" xmlns="http://www.w3.org/2000/svg">
<g id="Icon">
<path id="Icon_2" fill-rule="evenodd" clip-rule="evenodd" d="M13.7097 4.3871L13.7929 4.29289C14.1534 3.93241 14.7206 3.90468 15.1129 4.2097L15.2071 4.29289L22.2071 11.2929L22.2485 11.3369L22.3037 11.4047L22.3753 11.5159L22.4288 11.6287L22.4642 11.734L22.4931 11.8819L22.5 12L22.4972 12.0752L22.4798 12.2007L22.4503 12.3121L22.4063 12.4232L22.354 12.5207L22.2803 12.6254L22.2071 12.7071L15.2071 19.7071C14.8166 20.0976 14.1834 20.0976 13.7929 19.7071C13.4324 19.3466 13.4047 18.7794 13.7097 18.3871L13.7929 18.2929L19.084 13H3.5C2.94772 13 2.5 12.5523 2.5 12C2.5 11.4477 2.94772 11 3.5 11H19.086L13.7929 5.70711C13.4324 5.34662 13.4047 4.77939 13.7097 4.3871L13.7929 4.29289L13.7097 4.3871Z" fill="white"/>
</g>
</svg>
