<svg width="209" height="95" viewBox="0 0 209 95" fill="none" xmlns="http://www.w3.org/2000/svg">
<path d="M52.0508 50.1554C49.7768 48.8425 49.7768 45.5602 52.0508 44.2474L63.8371 37.4425C66.1111 36.1296 68.9536 37.7708 68.9536 40.3965L68.9536 54.0062C68.9536 56.632 66.1111 58.2731 63.8371 56.9602L52.0508 50.1554Z" fill="white"/>
<path d="M30.699 50.1554C28.425 48.8425 28.425 45.5602 30.699 44.2474L42.4853 37.4425C44.7593 36.1296 47.6018 37.7708 47.6018 40.3965L47.6018 54.0062C47.6018 56.632 44.7593 58.2731 42.4853 56.9602L30.699 50.1554Z" fill="white"/>
<rect x="92.4956" y="25.582" width="9.6084" height="43.2378" rx="3.41099" fill="white"/>
<rect x="106.375" y="25.582" width="9.6084" height="43.2378" rx="3.41099" fill="white"/>
<path d="M156.428 44.247C158.702 45.5599 158.702 48.8421 156.428 50.155L144.641 56.9598C142.367 58.2727 139.525 56.6316 139.525 54.0058L139.525 40.3962C139.525 37.7704 142.367 36.1293 144.641 37.4422L156.428 44.247Z" fill="white"/>
<path d="M177.78 44.247C180.054 45.5599 180.054 48.8421 177.78 50.155L165.993 56.9598C163.719 58.2727 160.877 56.6316 160.877 54.0058L160.877 40.3962C160.877 37.7704 163.719 36.1293 165.993 37.4422L177.78 44.247Z" fill="white"/>
</svg>
