<svg width="20" height="20" viewBox="0 0 20 20" fill="none" xmlns="http://www.w3.org/2000/svg">
<g id="16x16 / ic16-close">
<path id="Icon Color" fill-rule="evenodd" clip-rule="evenodd" d="M11.4141 10L14.7071 6.70701C15.0981 6.31601 15.0981 5.68401 14.7071 5.29301C14.3161 4.90201 13.6841 4.90201 13.2931 5.29301L10.0001 8.58601L6.70713 5.29301C6.31613 4.90201 5.68413 4.90201 5.29313 5.29301C4.90213 5.68401 4.90213 6.31601 5.29313 6.70701L8.58613 10L5.29313 13.293C4.90213 13.684 4.90213 14.316 5.29313 14.707C5.48813 14.902 5.74413 15 6.00013 15C6.25613 15 6.51213 14.902 6.70713 14.707L10.0001 11.414L13.2931 14.707C13.4881 14.902 13.7441 15 14.0001 15C14.2561 15 14.5121 14.902 14.7071 14.707C15.0981 14.316 15.0981 13.684 14.7071 13.293L11.4141 10Z" fill="#A1A1A1"/>
</g>
</svg>
