<svg width="20" height="20" viewBox="0 0 20 20" fill="none" xmlns="http://www.w3.org/2000/svg">
<g id="16x16 / ic16-check-circle">
<path id="Icon" fill-rule="evenodd" clip-rule="evenodd" d="M10 2.5C14.1421 2.5 17.5 5.85786 17.5 10C17.5 14.1421 14.1421 17.5 10 17.5C5.85786 17.5 2.5 14.1421 2.5 10C2.5 5.85786 5.85786 2.5 10 2.5ZM12.8661 6.61612L8.75 10.7322L7.13388 9.11612C6.64573 8.62796 5.85427 8.62796 5.36612 9.11612C4.87796 9.60427 4.87796 10.3957 5.36612 10.8839L7.86612 13.3839C8.35427 13.872 9.14573 13.872 9.63388 13.3839L14.6339 8.38388C15.122 7.89573 15.122 7.10427 14.6339 6.61612C14.1457 6.12796 13.3543 6.12796 12.8661 6.61612Z" fill="#406FDB"/>
</g>
</svg>
