<svg width="20" height="20" viewBox="0 0 20 20" fill="none" xmlns="http://www.w3.org/2000/svg">
<g id="24x24 / ic24-info">
<path id="Icon" fill-rule="evenodd" clip-rule="evenodd" d="M9.99996 1.66666C14.6023 1.66666 18.3333 5.39762 18.3333 9.99999C18.3333 14.6024 14.6023 18.3333 9.99996 18.3333C5.39759 18.3333 1.66663 14.6024 1.66663 9.99999C1.66663 5.39762 5.39759 1.66666 9.99996 1.66666ZM9.99996 3.33332C6.31806 3.33332 3.33329 6.31809 3.33329 9.99999C3.33329 13.6819 6.31806 16.6667 9.99996 16.6667C13.6819 16.6667 16.6666 13.6819 16.6666 9.99999C16.6666 6.31809 13.6819 3.33332 9.99996 3.33332ZM9.99996 8.33332C10.4602 8.33332 10.8333 8.70642 10.8333 9.16666V14.1667C10.8333 14.6269 10.4602 15 9.99996 15C9.53972 15 9.16663 14.6269 9.16663 14.1667V9.16666C9.16663 8.70642 9.53972 8.33332 9.99996 8.33332ZM9.99996 4.99999C10.4602 4.99999 10.8333 5.37309 10.8333 5.83332C10.8333 6.29356 10.4602 6.66666 9.99996 6.66666C9.53972 6.66666 9.16663 6.29356 9.16663 5.83332C9.16663 5.37309 9.53972 4.99999 9.99996 4.99999Z" fill="#656565"/>
</g>
</svg>
