<svg id="Warstwa_1" data-name="Warstwa 1" xmlns="http://www.w3.org/2000/svg" width="300" height="33" viewBox="0 0 300 33"><defs><style>.cls-1{fill:#222;}.cls-2{fill:none;}</style></defs><title>logo_sungroup_1</title><polygon class="cls-1" points="117.61 22.61 117.61 22.61 117.61 22.61 117.61 22.61"/><polygon class="cls-1" points="274.39 17.47 274.39 17.46 274.39 17.47 274.39 17.47"/><path class="cls-2" d="M208.83,13.31a3.78,3.78,0,0,0-3.84,4,3.85,3.85,0,1,0,7.69,0A3.8,3.8,0,0,0,208.83,13.31Z"/><path class="cls-2" d="M180.84,5.57a11,11,0,1,0,11,11A11,11,0,0,0,180.84,5.57Z"/><path class="cls-2" d="M235.56,13.31a4.25,4.25,0,0,0-1.35.23,4,4,0,0,0-2.72,3.93,4,4,0,0,0,2.72,3.93,4.25,4.25,0,0,0,1.35.23A4,4,0,0,0,238.9,20a4.31,4.31,0,0,0,.75-2.48A4.26,4.26,0,0,0,238.9,15,4,4,0,0,0,235.56,13.31Z"/><path class="cls-2" d="M267.55,13.31a3.79,3.79,0,0,0-3.84,3.25,4.6,4.6,0,0,0,0,1.81,3.79,3.79,0,0,0,3.84,3.26,3.89,3.89,0,0,0,3.92-4.16A3.89,3.89,0,0,0,267.55,13.31Z"/><path class="cls-1" d="M125.27,16.33c-.22,0-.44-.09-.68-.12L123.25,16c-1.2-.17-2.15-.43-2.15-1.34s.91-1.54,2.46-1.54a7.48,7.48,0,0,1,1.71.21,8.1,8.1,0,0,1,2.31.9L128.8,12a9.05,9.05,0,0,0-3.53-1.23,12.26,12.26,0,0,0-1.74-.14c-3.31,0-5.37,1.59-5.37,4.16,0,2.09,1.53,3.42,4.41,3.81l1.36.17a5.9,5.9,0,0,1,1.34.34c.62.26.91.63.91,1.1a1.35,1.35,0,0,1-.91,1.23,4.89,4.89,0,0,1-2,.36,6.54,6.54,0,0,1-4.29-1.33l-1.32,2.12h0a9.59,9.59,0,0,0,5.58,1.67,10.13,10.13,0,0,0,2.08-.22c2.45-.54,3.84-2,3.84-4S127.69,16.83,125.27,16.33Z"/><path class="cls-1" d="M140.85,11V18.2c0,2.51-1.4,3.43-3.18,3.43s-3.18-.92-3.18-3.43V11h-2.85v7.48c0,4.13,3,5.84,6,5.84a6.88,6.88,0,0,0,3.3-.8,5.36,5.36,0,0,0,2.73-5V11h-2.85Z"/><path class="cls-1" d="M154.16,10.64a4.61,4.61,0,0,0-4,1.92V11h-2.83V24h2.85v-7.2a3.22,3.22,0,0,1,3.37-3.42c1.9,0,3,1.21,3,3.39V24h2.85V15.8A5,5,0,0,0,154.16,10.64Z"/><path class="cls-1" d="M212.43,11v1.56a5.22,5.22,0,0,0-4.33-1.9c-3,0-6,2.49-6,6.69s3.06,6.69,6,6.69a5.21,5.21,0,0,0,4.33-1.89v1c0,2.41-1.46,3.88-4.13,3.88a8.56,8.56,0,0,1-4.41-1.32l-1,2.4a10,10,0,0,0,5.44,1.5,7.64,7.64,0,0,0,4.39-1.21,6.15,6.15,0,0,0,2.6-5.37V11h-2.86Zm-3.6,10.38a3.79,3.79,0,0,1-3.84-4,3.85,3.85,0,1,1,7.69,0A3.8,3.8,0,0,1,208.83,21.36Z"/><path class="cls-1" d="M222.2,12.09a3.68,3.68,0,0,0-.33.35V11h-2.81V24h2.84V16.82a4.22,4.22,0,0,1,.3-1.62,2.86,2.86,0,0,1,2.8-1.87,5.13,5.13,0,0,1,2.16.48l.67-2.81a5.79,5.79,0,0,0-2.18-.36A4.41,4.41,0,0,0,222.2,12.09Z"/><path class="cls-1" d="M238.9,11.44a7.29,7.29,0,0,0-3.34-.8,8.37,8.37,0,0,0-1.35.12,6.67,6.67,0,0,0-5.64,6.71,6.66,6.66,0,0,0,5.64,6.7,7.23,7.23,0,0,0,4.69-.68,6.61,6.61,0,0,0,3.67-6A6.62,6.62,0,0,0,238.9,11.44Zm0,8.51a4,4,0,0,1-3.34,1.68,4.25,4.25,0,0,1-1.35-.23,4,4,0,0,1-2.72-3.93,4,4,0,0,1,2.72-3.93,4.25,4.25,0,0,1,1.35-.23A4,4,0,0,1,238.9,15a4.26,4.26,0,0,1,.75,2.48A4.31,4.31,0,0,1,238.9,20Z"/><path class="cls-1" d="M254.48,18.2c0,2.51-1.4,3.43-3.18,3.43a3.12,3.12,0,0,1-2.36-.9,3.61,3.61,0,0,1-.81-2.53V11h-2.86v7.48a5.32,5.32,0,0,0,3.67,5.45,7.49,7.49,0,0,0,2.36.39c3,0,6-1.71,6-5.84V11h-2.85Z"/><path class="cls-1" d="M267.89,10.64a5,5,0,0,0-4.08,1.88V11H261v18.4h2.84v-7a5,5,0,0,0,4.08,1.89,6.52,6.52,0,0,0,6.5-6.83h0A6.52,6.52,0,0,0,267.89,10.64Zm-.34,11a3.79,3.79,0,0,1-3.84-3.26,4.6,4.6,0,0,1,0-1.81,3.79,3.79,0,0,1,3.84-3.25,3.89,3.89,0,0,1,3.92,4.16A3.89,3.89,0,0,1,267.55,21.63Z"/><path class="cls-1" d="M180.84.09a16.46,16.46,0,1,0,0,32.91h0a16.46,16.46,0,1,0,0-32.91Zm0,27.42a11,11,0,1,1,11-11A11,11,0,0,1,180.84,27.51Z"/><path d="M36.65,14h1.82l-2.95,7.53H33.89L32,16.59l-1.82,4.94H28.56L25.61,14h1.91l1.94,5.31L31.41,14h1.35l2,5.35Z"/><path d="M46.78,14l-3.5,8a4.68,4.68,0,0,1-1.52,2,5.39,5.39,0,0,1-2.29.85l-.42-1.43a4.72,4.72,0,0,0,1.59-.6,2.62,2.62,0,0,0,.86-1.08l.24-.56L38.61,14h2l2.17,5.41L44.93,14Z"/><path d="M55.23,21.53H52.9l-3.3-3.48v3.48H47.75v-11H49.6v6.77L52.71,14H55l-3.39,3.6Z"/><path d="M57.27,21.17a3.28,3.28,0,0,1-1.35-1.36,4.43,4.43,0,0,1-.47-2.08,4.47,4.47,0,0,1,.47-2.09,3.34,3.34,0,0,1,1.35-1.36,4.11,4.11,0,0,1,2-.48,4.05,4.05,0,0,1,2,.48,3.23,3.23,0,0,1,1.33,1.36,4.35,4.35,0,0,1,.47,2.09,4.31,4.31,0,0,1-.47,2.08,3.18,3.18,0,0,1-1.33,1.36,4.05,4.05,0,0,1-2,.48A4.11,4.11,0,0,1,57.27,21.17Zm3.46-1.6a2.9,2.9,0,0,0,.5-1.84,2.91,2.91,0,0,0-.51-1.85,1.73,1.73,0,0,0-1.43-.63,1.75,1.75,0,0,0-1.45.63,2.91,2.91,0,0,0-.51,1.85,2.9,2.9,0,0,0,.5,1.84,2,2,0,0,0,2.9,0Z"/><path d="M71.72,16.91v4.62H69.85V17a2,2,0,0,0-.34-1.3,1.31,1.31,0,0,0-1.06-.41,1.82,1.82,0,0,0-1.37.54,2,2,0,0,0-.52,1.44v4.27H64.71v-5.4A16.81,16.81,0,0,0,64.59,14h1.74l.14,1.23a2.81,2.81,0,0,1,1-1.06A3.09,3.09,0,0,1,69,13.8C70.82,13.8,71.72,14.84,71.72,16.91Z"/><path d="M80.91,14v7.53H79.08V20.32a2.4,2.4,0,0,1-1,1,3,3,0,0,1-1.46.35,3.13,3.13,0,0,1-2.93-1.83,4.87,4.87,0,0,1-.41-2.05,4.88,4.88,0,0,1,.42-2.07,3.35,3.35,0,0,1,1.19-1.4,3.1,3.1,0,0,1,1.73-.5,3,3,0,0,1,1.46.35,2.46,2.46,0,0,1,1,1V14Zm-2.34,5.55a2.85,2.85,0,0,0,.51-1.81,2.85,2.85,0,0,0-.51-1.83,1.91,1.91,0,0,0-2.89,0,3,3,0,0,0-.51,1.84,2.77,2.77,0,0,0,.51,1.79,1.79,1.79,0,0,0,1.46.63A1.75,1.75,0,0,0,78.57,19.55Z"/><path d="M90,16.91v4.62H88.09V17a2,2,0,0,0-.34-1.3,1.31,1.31,0,0,0-1.06-.41,1.8,1.8,0,0,0-1.37.54,2,2,0,0,0-.53,1.44v4.27H82.94v-5.4A16.81,16.81,0,0,0,82.82,14h1.75l.13,1.23a2.77,2.77,0,0,1,1.06-1.06,3.09,3.09,0,0,1,1.5-.37C89.06,13.8,90,14.84,90,16.91Z"/><path d="M91.82,10.58H93.9v1.83H91.82Zm.12,11V14h1.85v7.53Z"/><path d="M102.43,17.86H97.24a2.71,2.71,0,0,0,.6,1.78,2.11,2.11,0,0,0,1.62.58,3.71,3.71,0,0,0,2.3-.81l.54,1.29a4.33,4.33,0,0,1-1.32.69,5.19,5.19,0,0,1-1.59.26,4,4,0,0,1-2.91-1,3.85,3.85,0,0,1-1.06-2.87,4.35,4.35,0,0,1,.46-2,3.38,3.38,0,0,1,1.3-1.4,3.66,3.66,0,0,1,1.89-.5,3.14,3.14,0,0,1,2.46,1,4,4,0,0,1,.9,2.77ZM97.9,15.58a2.2,2.2,0,0,0-.6,1.28h3.5a2,2,0,0,0-.51-1.28,1.57,1.57,0,0,0-1.17-.44A1.72,1.72,0,0,0,97.9,15.58Z"/></svg>