<svg width="210" height="41" viewBox="0 0 210 41" fill="none" xmlns="http://www.w3.org/2000/svg">
<rect x="1" y="1" width="208" height="39" rx="4" fill="black"/>
<path d="M55.38 25.5H57.78V21.356H60.596C62.996 21.356 64.42 19.9 64.42 17.74C64.42 16.684 64.036 15.788 63.396 15.132C62.724 14.444 61.732 14.06 60.404 14.06H55.38V25.5ZM57.78 16.076H60.212C61.364 16.076 62.036 16.684 62.036 17.756C62.036 18.796 61.396 19.468 60.18 19.468H57.78V16.076ZM65.4235 25.5H67.5995V14.06H65.4235V25.5ZM74.2001 25.5H76.2961V25.42C76.1041 25.276 76.0081 24.908 76.0081 24.284V20.108C76.0081 18.188 75.0161 17.084 72.5521 17.084C70.1521 17.084 69.0801 18.348 69.0161 19.788H70.9521C71.0161 19.004 71.5121 18.636 72.5361 18.636C73.4481 18.636 73.9121 19.02 73.9121 19.612C73.9121 20.236 73.2881 20.348 71.9281 20.54C70.1041 20.796 68.6321 21.372 68.6321 23.18C68.6321 24.812 69.8161 25.692 71.4961 25.692C72.9041 25.692 73.4961 25.212 73.9121 24.588H73.9441C73.9921 24.956 74.0721 25.34 74.2001 25.5ZM72.0241 24.172C71.2561 24.172 70.7441 23.9 70.7441 23.132C70.7441 22.364 71.3041 22.108 72.4401 21.852C72.9841 21.724 73.5761 21.596 73.9601 21.372V22.604C73.9601 23.404 73.2721 24.172 72.0241 24.172ZM77.4894 28.188H78.7694C80.4334 28.188 81.0414 27.532 81.6654 25.708L84.5294 17.292H82.3374L81.1854 20.988C80.9294 21.74 80.7054 22.78 80.7054 22.78H80.6734C80.6734 22.78 80.4014 21.74 80.1454 20.988L78.9294 17.292H76.6414L78.8494 23.132C79.3134 24.38 79.4734 24.908 79.4734 25.356C79.4734 26.028 79.1214 26.476 78.2574 26.476H77.4894V28.188ZM88.8881 25.74C91.0001 25.74 92.2961 24.508 92.6001 23.052H90.4561C90.2161 23.676 89.7201 24.06 88.8721 24.06C87.6401 24.06 86.9361 23.276 86.7761 22.012H92.7281C92.7281 19.084 91.3201 17.068 88.6801 17.068C86.2801 17.068 84.6321 18.956 84.6321 21.388C84.6321 23.836 86.1681 25.74 88.8881 25.74ZM88.7121 18.748C89.7041 18.748 90.3921 19.468 90.4561 20.508H86.8081C87.0001 19.436 87.5601 18.748 88.7121 18.748ZM95.8313 17.292H93.7353V25.5H95.9113V21.5C95.9113 19.772 96.9353 19.02 98.3593 19.164H98.4073V17.26C98.2793 17.212 98.1353 17.196 97.8953 17.196C96.9353 17.196 96.3753 17.676 95.8793 18.604H95.8313V17.292ZM102.208 25.5H104.336V18.94C104.336 18.012 104.24 16.572 104.24 16.572H104.272C104.272 16.572 104.528 17.916 104.768 18.748L106.688 25.5H108.912L110.88 18.748C111.12 17.916 111.376 16.572 111.376 16.572H111.408C111.408 16.572 111.312 18.012 111.312 18.94V25.5H113.472V14.06H110.16L108.544 19.804C108.144 21.244 107.84 22.892 107.84 22.892H107.808C107.808 22.892 107.488 21.244 107.088 19.804L105.472 14.06H102.208V25.5ZM118.919 25.74C121.031 25.74 122.327 24.508 122.631 23.052H120.487C120.247 23.676 119.751 24.06 118.903 24.06C117.671 24.06 116.967 23.276 116.807 22.012H122.759C122.759 19.084 121.351 17.068 118.711 17.068C116.311 17.068 114.663 18.956 114.663 21.388C114.663 23.836 116.199 25.74 118.919 25.74ZM118.743 18.748C119.735 18.748 120.423 19.468 120.487 20.508H116.839C117.031 19.436 117.591 18.748 118.743 18.748ZM127.623 25.74C129.735 25.74 131.031 24.508 131.335 23.052H129.191C128.951 23.676 128.455 24.06 127.607 24.06C126.375 24.06 125.671 23.276 125.511 22.012H131.463C131.463 19.084 130.055 17.068 127.415 17.068C125.015 17.068 123.367 18.956 123.367 21.388C123.367 23.836 124.903 25.74 127.623 25.74ZM127.447 18.748C128.439 18.748 129.127 19.468 129.191 20.508H125.543C125.735 19.436 126.295 18.748 127.447 18.748ZM134.654 25.5H136.766L140.622 14.06H138.27L136.27 20.684C136.046 21.42 135.774 22.508 135.774 22.508H135.742C135.742 22.508 135.47 21.436 135.246 20.684L133.23 14.06H130.798L134.654 25.5ZM148.156 25.5V17.292H145.98V22.028C145.98 23.116 145.356 23.884 144.332 23.884C143.404 23.884 142.972 23.356 142.972 22.396V17.292H140.812V22.764C140.812 24.556 141.836 25.724 143.66 25.724C144.812 25.724 145.452 25.292 146.012 24.54H146.06V25.5H148.156Z" fill="#E6E6E6"/>
<path fill-rule="evenodd" clip-rule="evenodd" d="M172.71 12.8871L172.793 12.7929C173.153 12.4324 173.721 12.4047 174.113 12.7097L174.207 12.7929L181.207 19.7929L181.249 19.8369L181.304 19.9047L181.375 20.0159L181.429 20.1287L181.464 20.234L181.493 20.3819L181.5 20.5L181.497 20.5752L181.48 20.7007L181.45 20.8121L181.406 20.9232L181.354 21.0207L181.28 21.1254L181.207 21.2071L174.207 28.2071C173.817 28.5976 173.183 28.5976 172.793 28.2071C172.432 27.8466 172.405 27.2794 172.71 26.8871L172.793 26.7929L178.084 21.5H162.5C161.948 21.5 161.5 21.0523 161.5 20.5C161.5 19.9477 161.948 19.5 162.5 19.5H178.086L172.793 14.2071C172.432 13.8466 172.405 13.2794 172.71 12.8871L172.793 12.7929L172.71 12.8871Z" fill="#E6E6E6"/>
<rect x="1" y="1" width="208" height="39" rx="4" stroke="#A1A1A1"/>
<path d="M37.2513 15.2524L36.0006 14.0017L29.7506 20.2517L22.2499 12.751L19.7502 15.2524L28.5017 24.0021L37.2513 15.2524Z" fill="#E6E6E6"/>
<path d="M33.5013 11.5015L32.2506 10.2525L29.751 12.7504L26.0024 9L23.501 11.4996L28.5021 16.5025L33.5013 11.5015Z" fill="#E6E6E6"/>
<path d="M39.7511 17.7509L29.7507 27.7512L18.4996 16.502L16 19.0016L28.5018 31.5034L41 19.0016L39.7511 17.7509Z" fill="#E6E6E6"/>
</svg>
