<svg width="166" height="80" viewBox="0 0 166 80" fill="none" xmlns="http://www.w3.org/2000/svg">
<circle cx="40.9895" cy="40" r="10" fill="#E95252"/>
<path d="M68.9815 48.4004L65.5495 43.4804C65.4055 43.4964 65.1895 43.5044 64.9015 43.5044H61.1095V48.4004H57.9895V31.6004H64.9015C66.3575 31.6004 67.6215 31.8404 68.6935 32.3204C69.7815 32.8004 70.6135 33.4884 71.1895 34.3844C71.7655 35.2804 72.0535 36.3444 72.0535 37.5764C72.0535 38.8404 71.7415 39.9284 71.1175 40.8404C70.5095 41.7524 69.6295 42.4324 68.4775 42.8804L72.3415 48.4004H68.9815ZM68.9095 37.5764C68.9095 36.5044 68.5575 35.6804 67.8535 35.1044C67.1495 34.5284 66.1175 34.2404 64.7575 34.2404H61.1095V40.9364H64.7575C66.1175 40.9364 67.1495 40.6484 67.8535 40.0724C68.5575 39.4804 68.9095 38.6484 68.9095 37.5764Z" fill="#CDCDCD"/>
<path d="M93.1442 45.7844V48.4004H80.5442V31.6004H92.8082V34.2164H83.6642V38.5844H91.7762V41.1524H83.6642V45.7844H93.1442Z" fill="#CDCDCD"/>
<path d="M109.328 48.6404C107.632 48.6404 106.096 48.2724 104.72 47.5364C103.36 46.7844 102.288 45.7524 101.504 44.4404C100.736 43.1284 100.352 41.6484 100.352 40.0004C100.352 38.3524 100.744 36.8724 101.528 35.5604C102.312 34.2484 103.384 33.2244 104.744 32.4884C106.12 31.7364 107.656 31.3604 109.352 31.3604C110.728 31.3604 111.984 31.6004 113.12 32.0804C114.256 32.5604 115.216 33.2564 116 34.1684L113.984 36.0644C112.768 34.7524 111.272 34.0964 109.496 34.0964C108.344 34.0964 107.312 34.3524 106.4 34.8644C105.488 35.3604 104.776 36.0564 104.264 36.9524C103.752 37.8484 103.496 38.8644 103.496 40.0004C103.496 41.1364 103.752 42.1524 104.264 43.0484C104.776 43.9444 105.488 44.6484 106.4 45.1604C107.312 45.6564 108.344 45.9044 109.496 45.9044C111.272 45.9044 112.768 45.2404 113.984 43.9124L116 45.8324C115.216 46.7444 114.248 47.4404 113.096 47.9204C111.96 48.4004 110.704 48.6404 109.328 48.6404Z" fill="#CDCDCD"/>
</svg>
