<svg width="243" height="54" viewBox="0 0 243 54" fill="none" xmlns="http://www.w3.org/2000/svg">
<g opacity="0.1" clip-path="url(#clip0_2_2048)">
<path d="M0 0H43.1037V9.21837H26.9862V54H16.1484V9.21837H0V0Z" fill="white"/>
<path d="M44.2185 0H55.6137L65.0272 31.1958C66.08 34.7522 67.3496 39.8059 67.3496 39.8059H67.5044C67.5044 39.8059 68.774 34.6742 69.8268 31.1958L79.2248 0H90.2484L72.1802 54H62.2867L44.2185 0Z" fill="white"/>
<path d="M174.954 42.7383H151.265V31.6482L174.489 1.66895H184.832V34.5182H192.573V42.7383H184.832V54H174.954V42.7383ZM159.471 34.5182H174.954V14.428H174.814L159.471 34.3154V34.5182Z" fill="white"/>
<path d="M196.629 0H207.467V21.5251L228.168 0H241.653L220.658 21.6031L243.077 54H230.335L213.025 28.7782L207.545 34.3154V54H196.707L196.629 0Z" fill="white"/>
<path d="M105.901 20.2773H110.546L112.683 28.5598C113.07 30.0104 113.488 31.8978 113.488 31.8978C113.488 31.8978 113.875 29.9793 114.247 28.513L116.538 20.2773H120.548L122.855 28.513C123.242 30.0728 123.691 31.8978 123.691 31.8978C123.691 31.8978 124.109 30.0104 124.481 28.5598L126.803 20.2773H131.355L126.075 38.1838H121.787L119.433 29.4177C119.062 27.9827 118.644 26.2981 118.644 26.2981L117.808 29.4177L115.392 38.1838H111.073L105.901 20.2773Z" fill="white"/>
<path d="M118.736 50.3971C114.35 50.4001 110.061 49.0924 106.413 46.6392C102.765 44.1861 99.9205 40.6978 98.2405 36.6157C96.5605 32.5337 96.1201 28.0413 96.9751 23.7071C97.8301 19.3728 99.942 15.3915 103.044 12.2667C106.145 9.14203 110.097 7.01439 114.399 6.15304C118.702 5.29169 123.161 5.73534 127.213 7.42785C131.265 9.12036 134.727 11.9857 137.162 15.6612C139.597 19.3368 140.895 23.6574 140.892 28.0764C140.884 33.9937 138.547 39.6662 134.394 43.8504C130.241 48.0345 124.61 50.3888 118.736 50.3971ZM118.736 9.67089C115.122 9.6678 111.589 10.7446 108.582 12.7652C105.576 14.7857 103.232 17.6592 101.847 21.0221C100.461 24.385 100.097 28.0863 100.801 31.6576C101.504 35.229 103.243 38.51 105.797 41.0856C108.351 43.6612 111.607 45.4157 115.151 46.1272C118.695 46.8386 122.37 46.475 125.709 45.0824C129.048 43.6898 131.902 41.3307 133.91 38.3036C135.919 35.2765 136.99 31.7174 136.99 28.0764C136.986 23.1989 135.062 18.5222 131.64 15.0718C128.218 11.6214 123.578 9.67915 118.736 9.67089Z" fill="white"/>
</g>
<defs>
<clipPath id="clip0_2_2048">
<rect width="243" height="54" fill="white"/>
</clipPath>
</defs>
</svg>
