<svg width="200" height="178" viewBox="0 0 200 178" fill="none" xmlns="http://www.w3.org/2000/svg">
<path id="Vector 1" d="M192.5 72.7356L192.921 73.0055L192.5 72.7356ZM112.295 177.693C112.547 177.806 112.843 177.694 112.956 177.442L114.8 173.337C114.913 173.085 114.8 172.789 114.548 172.676C114.297 172.563 114.001 172.675 113.887 172.927L112.249 176.576L108.6 174.937C108.348 174.824 108.052 174.937 107.939 175.189C107.826 175.44 107.938 175.736 108.19 175.849L112.295 177.693ZM92 8.5L92.1803 8.96636L92 8.5ZM192.079 72.4657C185.657 82.4791 176.05 90.2336 165.557 97.1858C160.312 100.661 154.858 103.928 149.477 107.177C144.1 110.424 138.797 113.652 133.874 117.039C124.035 123.81 115.654 131.256 111.199 140.857C106.733 150.482 106.246 162.194 112.033 177.415L112.967 177.059C107.254 162.03 107.778 150.605 112.106 141.278C116.446 131.926 124.644 124.605 134.441 117.863C139.336 114.495 144.615 111.281 149.994 108.033C155.368 104.788 160.843 101.509 166.109 98.0194C176.639 91.0427 186.386 83.1954 192.921 73.0055L192.079 72.4657ZM0 39.9999C27.0563 39.9999 39.8906 36.2033 51.1052 30.3884C62.3263 24.5701 71.703 16.8837 92.1803 8.96636L91.8197 8.03364C71.297 15.9685 61.6737 23.782 50.6448 29.5006C39.6094 35.2226 26.9437 38.9999 0 38.9999V39.9999ZM92.1803 8.96636C127.787 -4.80076 158.96 1.53148 178.111 16.0694C197.271 30.6149 204.366 53.3073 192.079 72.4657L192.921 73.0055C205.569 53.2843 198.163 30.0365 178.715 15.2729C159.257 0.501782 127.713 -5.84396 91.8197 8.03364L92.1803 8.96636Z" fill="#141414"/>
</svg>
